PathFileType	4	(X/Y/Z)	C:\Users\dbl\Desktop\LZH\BX\Trimmed_bx_y_10_1801.trc
DataRate	CameraRate	NumFrames	NumMarkers	Units	OrigDataRate	OrigDataStartFrame	OrigNumFrames
50.00	50.00	       4	43	mm	50.00	179	       357
Frame#	Time	Top.Head			R.Acromium			L.Acromium			Sternum			R.ASIS			L.ASIS			V.Sacral			R.Thigh.Upper			R.Thigh.Front			R.Thigh.Rear			R.Knee.Lat			R.Knee.Med			R.Shank.Upper			R.Shank.Front			R.Shank.Rear			R.Ankle.Lat			R.Midfoot.Lat			R.Toe.Lat			R.Toe.Tip			R.Toe.Med			R.Ankle.Med			R.Midfoot.Sup			R.Heel			L.Thigh.Upper			L.Thigh.Front			L.Thigh.Rear			L.Knee.Lat			L.Knee.Med			L.Shank.Upper			L.Shank.Front			L.Shank.Rear			L.Ankle.Lat			L.Midfoot.Lat			L.Toe.Lat			L.Toe.Tip			L.Toe.Med			L.Ankle.Med			L.Midfoot.Sup			L.Heel			origin1 front left			origin2 front right			origin 3 back right			origin 4 back leftt			
		X1	Y1	Z1	X2	Y2	Z2	X3	Y3	Z3	X4	Y4	Z4	X5	Y5	Z5	X6	Y6	Z6	X7	Y7	Z7	X8	Y8	Z8	X9	Y9	Z9	X10	Y10	Z10	X11	Y11	Z11	X12	Y12	Z12	X13	Y13	Z13	X14	Y14	Z14	X15	Y15	Z15	X16	Y16	Z16	X17	Y17	Z17	X18	Y18	Z18	X19	Y19	Z19	X20	Y20	Z20	X21	Y21	Z21	X22	Y22	Z22	X23	Y23	Z23	X24	Y24	Z24	X25	Y25	Z25	X26	Y26	Z26	X27	Y27	Z27	X28	Y28	Z28	X29	Y29	Z29	X30	Y30	Z30	X31	Y31	Z31	X32	Y32	Z32	X33	Y33	Z33	X34	Y34	Z34	X35	Y35	Z35	X36	Y36	Z36	X37	Y37	Z37	X38	Y38	Z38	X39	Y39	Z39	X40	Y40	Z40	X41	Y41	Z41	X42	Y42	Z42	X43	Y43	Z43	

179	3.560	-211.27704	254.89801	1325.80237	-329.91010	36.55478	1210.39893	-376.81778	436.75238	1080.24963	-438.36740	255.17163	1066.78052	-743.68555	162.05850	993.07806	-706.47717	386.06033	883.70654	-916.87256	251.51753	886.60901	-710.87500	75.38024	769.63562	-647.94598	133.00809	768.65948	-641.66077	38.40830	661.33386	-535.30029	56.75767	552.21014	-509.93915	160.68428	527.27722	-558.19934	63.21846	499.51611	-462.66397	106.41516	519.97589	-616.32794	80.38068	453.47073	-674.66431	147.24272	213.79195	-615.90332	79.75063	168.32559	-571.74805	52.38292	161.51569	-490.80573	90.23499	159.10870	-529.89838	143.53391	163.98958	-616.78729	216.61807	211.86913	-588.24377	189.27684	166.42873	-711.24060	220.47458	173.84024	-682.68915	446.32785	755.86835	-623.03741	382.33618	765.21082	-608.72955	458.87042	648.97260	-521.01501	438.72998	562.22430	-461.12280	337.25787	540.16357	-507.21362	439.61557	519.13361	-454.33539	394.80084	493.93268	-570.94434	434.90268	484.62216	-667.09753	411.39413	211.71625	-583.85583	467.19470	166.14494	-546.40558	476.16602	159.62497	-486.00366	428.34967	164.24141	-523.44318	385.95108	176.01709	-632.01770	323.12961	199.46588	-591.16876	346.42099	163.95197	-729.30695	340.39709	166.41920	-443.70718	448.21445	145.96400	-450.63794	76.00610	143.95345	-806.26294	82.72752	142.50491	-799.37708	457.89023	144.91660	
180	3.580	-211.33789	255.53198	1314.58984	-326.41946	36.32434	1205.10046	-376.01968	437.43173	1068.72620	-437.61032	255.75780	1060.14014	-745.29742	162.95151	991.84875	-706.84912	386.85153	876.09827	-918.16968	251.48570	877.90576	-711.33673	75.36517	763.50598	-649.07129	132.31596	764.70227	-640.12079	36.47099	658.60742	-532.44067	55.72184	549.98120	-506.11703	159.85762	526.29852	-555.23395	62.09747	497.91504	-459.70889	105.37125	518.35394	-613.92603	79.68260	452.24554	-674.40894	147.36392	214.04947	-615.79675	80.06252	168.51134	-571.58929	52.69140	161.83453	-490.75943	90.30412	159.00186	-529.78754	143.56648	163.96672	-616.43597	216.88882	212.10690	-587.96216	189.33163	166.18871	-711.07269	220.74294	173.87419	-683.00293	446.49304	749.46533	-623.58533	382.48331	760.26947	-607.22076	459.16748	644.58411	-517.73328	439.16077	559.75458	-457.76425	337.33191	538.46307	-503.91855	440.01453	517.24713	-451.13770	395.17294	491.93173	-568.02820	435.03943	483.31476	-666.73779	411.17511	211.86560	-583.81232	467.03879	166.21292	-546.34650	476.06219	159.68425	-485.93021	428.62543	164.57161	-523.40796	385.87442	175.99335	-631.87921	322.99960	199.16013	-591.02081	346.30511	163.97389	-729.20648	340.20026	166.53015	-443.70752	448.17889	145.91457	-450.62906	76.01286	143.96953	-806.24078	82.73512	142.49892	-799.45135	457.85931	145.04654	
181	3.600	-211.44122	256.31110	1303.80322	-323.11874	36.12498	1200.10449	-375.56531	438.10806	1057.63879	-436.90921	256.36932	1053.70117	-746.75781	163.84595	990.67328	-707.22272	387.64017	868.86511	-919.31488	251.44325	869.83020	-711.92175	75.31725	757.67938	-650.29340	131.81964	760.71088	-638.67542	34.58018	656.04425	-529.97473	54.67400	547.92151	-502.51385	159.16006	525.44983	-552.56891	61.08152	496.34421	-457.13812	104.33901	516.88965	-611.83154	78.92371	451.10223	-674.08820	147.50943	214.26176	-615.71399	80.42881	168.61707	-571.47717	52.99882	162.10867	-490.76447	90.39645	158.86877	-529.70691	143.58363	163.98318	-616.09131	217.30609	212.43530	-587.72766	189.40099	165.94408	-710.94183	221.03500	173.94704	-683.46930	446.64496	743.52460	-624.31512	382.61200	755.66840	-605.97205	459.50290	640.56274	-514.84259	439.61761	557.55835	-454.78574	337.43967	536.86145	-500.97064	440.46918	515.56152	-448.41577	395.66730	490.03159	-565.49628	435.19699	482.09140	-666.45160	410.99161	212.04260	-583.75464	466.89917	166.24321	-546.27441	475.95285	159.70547	-485.88925	428.78793	164.75459	-523.33423	385.80115	175.98532	-631.58215	323.01263	198.85083	-590.89954	346.19785	163.98482	-729.14813	340.02881	166.60846	-443.70728	448.12677	145.86626	-450.62335	76.01440	143.98276	-806.25110	82.73450	142.51244	-799.47546	457.91010	145.07103	
182	3.620	-211.64310	257.28937	1293.48193	-320.00620	35.95591	1195.40710	-375.44470	438.71069	1046.98535	-436.26340	257.00461	1047.46436	-748.06946	164.74094	989.55127	-707.59283	388.42310	861.99719	-920.34198	251.36293	862.43011	-712.62378	75.20931	752.16382	-651.56860	131.65872	756.58307	-637.32275	32.73707	653.64148	-527.87122	53.60898	546.05109	-499.16974	158.58296	524.72906	-550.22949	60.13906	494.80750	-454.93582	103.32195	515.65619	-610.01208	78.06363	450.09406	-673.64777	147.72473	214.35457	-615.64203	80.81734	168.64255	-571.41925	53.30027	162.34444	-490.77939	90.45994	158.76399	-529.64899	143.60919	163.99471	-615.69342	217.63797	212.41754	-587.56421	189.50119	165.64212	-710.84137	221.34439	174.10332	-684.08856	446.79211	738.06451	-625.19098	382.83429	751.45837	-604.98340	459.82858	636.88989	-512.36652	440.17810	555.59906	-452.16458	337.67371	535.38721	-498.34216	441.01715	514.08234	-446.12094	396.34253	488.28604	-563.30225	435.50833	480.89764	-666.25098	410.79428	212.23849	-583.68915	466.79245	166.25259	-546.23022	475.85199	159.70888	-485.86008	428.86273	164.81619	-523.24139	385.74332	175.97244	-631.14032	323.11230	198.64015	-590.79211	346.10397	163.93401	-729.10278	339.87122	166.64095	-443.70908	448.09528	145.85107	-450.62149	76.01765	143.99174	-806.31683	82.72549	142.56284	-799.41724	458.04669	144.94289	
